<svg xmlns="http://www.w3.org/2000/svg" viewBox="0 0 115 91.98"><defs></defs><g id="Слой_2" data-name="Слой 2"><g id="Слой_1-2" data-name="Слой 1"><path class="cls-1" d="M6.5,1A11.9,11.9,0,0,0,2,4.73C.1,7.33,0,9,0,45.93s.1,38.6,2,41.2a12.78,12.78,0,0,0,4.9,3.8c4,1.4,97.2,1.4,101.2,0a12.78,12.78,0,0,0,4.9-3.8c1.9-2.6,2-4.3,2-41.2s-.1-38.6-2-41.2a12.78,12.78,0,0,0-4.9-3.8C104.4-.37,10-.27,6.5,1Zm27.8,21.6.3,6.3H10.5v-5.8c0-3.2.3-6.2.7-6.6s5.7-.5,11.7-.4l11.1.3Zm58.2,23.3v6h-82v-12h82ZM69.3,69.13l-.3,6.3H11l-.3-6.3-.3-6.2H69.6Z"/></g></g></svg>